<svg width="64" height="64" viewBox="0 0 64 64" fill="none" xmlns="http://www.w3.org/2000/svg">
  <defs>
    <linearGradient id="bg" x1="0%" y1="0%" x2="100%" y2="100%">
      <stop offset="0%" stop-color="#1DA1F2"/>
      <stop offset="100%" stop-color="#0084D6"/>
    </linearGradient>
  </defs>
  <circle cx="32" cy="32" r="30" fill="url(#bg)" stroke="#fff" stroke-width="2"/>
  <ellipse cx="32" cy="30" rx="14" ry="16" fill="none" stroke="#fff" stroke-width="2"/>
  <circle cx="27" cy="26" r="2" fill="#fff"/>
  <circle cx="37" cy="26" r="2" fill="#fff"/>
  <circle cx="20" cy="22" r="1.5" fill="#52c41a"/>
  <circle cx="44" cy="22" r="1.5" fill="#faad14"/>
  <circle cx="18" cy="32" r="1.5" fill="#1677ff"/>
  <circle cx="46" cy="32" r="1.5" fill="#f5222d"/>
  <path d="M 28 36 Q 32 40 36 36" stroke="#fff" stroke-width="2" fill="none"/>
  <rect x="12" y="28" width="8" height="1" fill="#fff" opacity="0.6"/>
  <rect x="44" y="28" width="8" height="1" fill="#fff" opacity="0.6"/>
  <rect x="12" y="36" width="8" height="1" fill="#fff" opacity="0.6"/>
  <rect x="44" y="36" width="8" height="1" fill="#fff" opacity="0.6"/>
  <rect x="29" y="48" width="2" height="4" fill="#fff"/>
  <rect x="32" y="46" width="2" height="6" fill="#fff"/>
  <rect x="35" y="49" width="2" height="3" fill="#fff"/>
</svg> 